<?xml version="1.0" standalone="no"?>
<!DOCTYPE svg PUBLIC "-//W3C//DTD SVG 20010904//EN"
 "http://www.w3.org/TR/2001/REC-SVG-20010904/DTD/svg10.dtd">
<svg version="1.0" xmlns="http://www.w3.org/2000/svg"
 width="270.000000pt" height="270.000000pt" viewBox="0 0 270.000000 270.000000"
 preserveAspectRatio="xMidYMid meet">
<metadata>
Created by potrace 1.11, written by Peter Selinger 2001-2013
</metadata>
<g transform="translate(0.000000,270.000000) scale(0.100000,-0.100000)"
fill="#000000" stroke="none">
<path d="M0 1350 l0 -1350 1350 0 1350 0 0 1350 0 1350 -1350 0 -1350 0 0
-1350z m1503 755 c47 -8 118 -27 157 -41 78 -29 220 -116 220 -135 0 -6 -30
-53 -67 -105 -56 -80 -70 -94 -94 -94 -15 0 -31 5 -34 10 -11 18 -120 68 -186
86 -76 19 -209 23 -260 6 -53 -18 -90 -62 -96 -115 -11 -99 42 -136 302 -207
266 -72 394 -155 445 -285 20 -50 24 -78 24 -165 0 -143 -22 -201 -113 -290
-108 -107 -224 -150 -409 -150 -218 0 -411 71 -579 212 l-42 36 85 101 c47 55
91 101 99 101 8 0 42 -20 76 -45 193 -142 431 -176 540 -78 44 40 57 84 39
137 -22 67 -83 97 -325 160 -273 72 -388 157 -431 318 -18 68 -18 178 0 246
61 229 331 353 649 297z"/>
</g>
</svg>
